<?xml version="1.0" standalone="no"?>
<!DOCTYPE svg PUBLIC "-//W3C//DTD SVG 20010904//EN"
 "http://www.w3.org/TR/2001/REC-SVG-20010904/DTD/svg10.dtd">
<svg version="1.0" xmlns="http://www.w3.org/2000/svg"
 width="500.000000pt" height="171.000000pt" viewBox="0 0 500.000000 171.000000"
 preserveAspectRatio="xMidYMid meet">

<g transform="translate(0.000000,171.000000) scale(0.100000,-0.100000)"
fill="#000000" stroke="none">
<path d="M3077 1633 c-4 -3 -7 -21 -7 -39 l0 -33 -142 -3 c-171 -4 -189 -22
-23 -25 61 0 122 -2 138 -2 l27 -1 0 -90 c0 -53 4 -90 10 -90 6 0 10 15 11 33
1 81 7 138 13 144 4 4 24 2 46 -4 22 -5 41 -6 42 -2 2 4 152 8 333 8 182 0
349 0 373 1 l42 1 -2 -86 c-1 -47 2 -88 5 -92 4 -3 8 25 9 63 2 109 3 112 9
118 4 4 25 3 48 -3 24 -5 43 -5 47 0 8 14 35 11 54 -6 14 -12 19 -12 43 0 25
13 27 12 32 -8 3 -12 6 -53 8 -92 3 -63 3 -61 5 23 l2 92 65 0 c83 0 85 18 3
22 l-63 3 -3 38 c-2 20 -8 37 -13 37 -6 0 -9 -17 -7 -37 l3 -38 -118 -1 c-79
-1 -117 3 -117 10 0 6 -4 5 -9 -3 -8 -12 -16 -13 -45 -4 -22 7 -38 7 -42 2 -3
-6 -150 -10 -357 -10 -194 0 -363 -1 -377 -2 -22 -2 -25 2 -25 35 0 37 -7 53
-18 41z"/>
<path d="M3942 1615 c0 -16 2 -22 5 -12 2 9 2 23 0 30 -3 6 -5 -1 -5 -18z"/>
<path d="M2503 1604 c-8 -22 2 -169 12 -169 6 0 11 12 13 27 3 22 8 26 33 26
37 -1 48 9 55 54 8 49 -21 79 -72 75 -20 -1 -38 -7 -41 -13z m75 -16 c17 -17
15 -67 -3 -74 -21 -8 -45 14 -45 40 0 21 17 46 30 46 3 0 11 -5 18 -12z"/>
<path d="M4402 1612 c-23 -15 -26 -75 -5 -100 23 -30 80 -33 99 -7 19 25 9 31
-22 15 -18 -10 -30 -11 -42 -4 -31 20 -24 32 18 31 50 -1 63 10 47 43 -9 18
-22 26 -47 28 -19 1 -41 -2 -48 -6z m75 -28 c2 -7 -8 -11 -27 -10 -30 1 -36 6
-23 20 10 10 46 3 50 -10z"/>
<path d="M4557 1532 c-23 -25 -21 -35 3 -27 18 6 20 2 20 -45 0 -28 4 -49 9
-46 5 4 8 30 6 59 -2 28 -4 58 -4 65 -1 17 -15 15 -34 -6z"/>
<path d="M2673 1518 c-29 -14 -31 -42 -3 -33 18 6 20 2 17 -41 -1 -31 2 -49
11 -51 9 -4 12 14 12 66 0 74 -1 76 -37 59z"/>
<path d="M4365 1300 c-9 -15 10 -19 95 -22 68 -3 75 -5 73 -23 -4 -29 -3 -52
3 -123 3 -35 1 -68 -4 -75 -5 -7 -6 -21 -1 -32 17 -43 13 -45 -76 -45 -50 0
-85 -4 -85 -10 0 -6 33 -10 78 -10 90 0 107 -8 96 -41 -4 -13 -6 -90 -5 -170
2 -98 -1 -149 -8 -154 -8 -4 -8 -12 -1 -25 5 -10 10 -27 10 -37 0 -16 -9 -18
-77 -18 -52 0 -78 -4 -80 -12 -4 -10 33 -13 161 -13 140 0 166 2 166 15 0 12
-13 14 -66 12 -72 -3 -81 3 -65 47 9 21 8 28 -4 32 -22 9 -22 242 0 258 13 9
14 17 4 44 -18 53 -8 62 66 62 37 0 65 4 65 10 0 6 -30 10 -70 10 l-71 0 6 34
c5 24 3 35 -8 39 -17 6 -16 120 3 141 8 11 8 20 1 35 -24 44 -16 50 67 53 45
2 76 7 75 13 -4 14 -339 19 -348 5z"/>
<path d="M2275 1290 l-450 -5 -3 -262 c-2 -257 -2 -262 19 -282 l22 -20 -37
-17 c-39 -19 -44 -29 -21 -41 12 -7 15 -52 17 -258 l3 -250 554 0 554 0 10
-22 c16 -37 34 -35 51 8 16 39 29 48 41 29 5 -7 192 -9 588 -4 320 3 584 7
587 9 3 2 4 256 2 565 l-2 561 -743 -3 c-408 -2 -944 -5 -1192 -8z m1895 -77
c0 -32 1 -270 2 -530 1 -260 -1 -475 -5 -479 -4 -4 -259 -9 -566 -12 l-558 -4
-7 24 -6 23 -25 -28 c-14 -16 -23 -32 -20 -37 3 -5 0 -12 -6 -16 -6 -4 -16 1
-21 10 -9 15 -54 17 -554 15 -299 -1 -546 0 -549 2 -2 3 -5 119 -6 259 -1 206
2 255 13 259 35 11 40 24 14 45 -22 18 -25 30 -26 86 -1 36 -1 70 -1 77 1 13
341 15 341 1 0 -16 72 -81 79 -71 3 6 16 15 27 21 35 18 63 74 50 97 -17 29
-39 51 -58 58 -15 5 -18 18 -18 67 0 33 -4 60 -10 60 -6 0 -10 -27 -10 -60 0
-43 -4 -61 -16 -68 -8 -4 -23 -21 -32 -36 l-17 -28 -167 -2 -168 -2 0 158 0
158 913 2 c501 2 1023 4 1160 6 l247 2 0 -57z m-1869 -233 c27 -15 24 -30 -6
-30 -18 0 -25 5 -25 20 0 23 4 24 31 10z m-51 -15 c0 -8 -9 -15 -20 -15 -22 0
-27 15 -7 23 21 9 27 7 27 -8z m-3 -60 c3 -9 3 -19 -1 -22 -8 -9 -37 18 -30
28 8 14 24 11 31 -6z m71 3 c-6 -16 -36 -34 -44 -26 -3 4 -4 14 -1 23 7 17 51
21 45 3z"/>
<path d="M3945 1198 c-3 -7 -4 -46 -2 -86 2 -71 1 -75 -25 -94 -15 -10 -28
-28 -28 -39 0 -23 12 -21 -185 -25 -88 -1 -159 -6 -157 -11 1 -4 71 -8 155 -9
189 -1 187 -1 187 -18 0 -8 12 -23 26 -33 14 -10 26 -27 28 -38 4 -26 26 -32
26 -6 0 11 12 28 26 38 14 9 30 27 35 41 7 19 15 23 42 21 17 -2 33 1 35 6 1
6 -13 10 -30 10 -26 0 -36 6 -46 28 -8 15 -25 32 -38 37 -23 9 -24 13 -24 100
0 55 -4 90 -10 90 -6 0 -13 -6 -15 -12z m75 -228 c0 -4 -9 -10 -21 -13 -23 -6
-35 13 -25 39 6 15 8 15 26 -1 11 -10 20 -21 20 -25z m-70 15 c0 -18 -36 -39
-44 -26 -7 10 20 41 35 41 5 0 9 -7 9 -15z m-7 -57 c2 -7 2 -19 -1 -26 -3 -10
-9 -9 -23 4 -10 9 -16 21 -13 25 8 13 32 11 37 -3z m70 5 c8 -7 -21 -43 -35
-43 -10 0 -11 34 -1 43 8 9 28 9 36 0z"/>
<path d="M3080 1091 c0 -72 -2 -80 -21 -86 -11 -4 -24 -16 -28 -28 -8 -20 -15
-21 -166 -23 -110 0 -160 -4 -163 -12 -3 -9 40 -12 156 -12 151 0 161 -1 167
-20 3 -11 17 -28 31 -39 18 -14 24 -29 24 -56 0 -45 24 -43 28 2 2 20 12 37
27 47 27 18 59 77 46 85 -4 3 -11 15 -15 27 -3 12 -18 26 -31 32 -23 11 -25
16 -25 87 0 60 -3 75 -15 75 -12 0 -15 -15 -15 -79z m0 -115 c0 -15 -24 -28
-34 -19 -7 7 13 33 25 33 5 0 9 -6 9 -14z m70 -11 c0 -19 -34 -11 -38 8 -2 11
2 14 17 10 12 -3 21 -11 21 -18z m-70 -60 c0 -29 -6 -31 -26 -11 -20 20 -17
36 6 36 15 0 20 -7 20 -25z m80 18 c0 -10 -32 -43 -42 -43 -4 0 -8 11 -8 25 0
20 5 25 25 25 14 0 25 -3 25 -7z"/>
<path d="M3330 945 c0 -13 10 -15 50 -13 67 4 69 22 3 26 -43 2 -53 0 -53 -13z"/>
<path d="M2480 940 c0 -5 18 -10 41 -10 24 0 38 4 34 10 -3 6 -22 10 -41 10
-19 0 -34 -4 -34 -10z"/>
<path d="M2250 701 c0 -46 16 -63 22 -23 5 35 -1 62 -13 62 -5 0 -9 -18 -9
-39z"/>
<path d="M3950 695 c0 -25 5 -45 10 -45 6 0 10 20 10 45 0 25 -4 45 -10 45 -5
0 -10 -20 -10 -45z"/>
<path d="M3089 703 c-3 -21 4 -59 12 -67 5 -6 9 6 9 32 0 23 -4 42 -10 42 -5
0 -10 -3 -11 -7z"/>
<path d="M3950 595 c0 -8 -13 -21 -29 -29 -16 -9 -31 -24 -34 -35 -5 -19 -14
-21 -176 -23 -108 -2 -170 -7 -169 -13 2 -6 65 -10 165 -10 l162 0 30 -32 c17
-18 35 -33 40 -33 7 0 11 -29 11 -74 0 -41 5 -78 10 -81 11 -7 12 5 10 82 -1
47 2 54 34 84 20 18 36 38 36 46 0 7 5 12 11 11 6 -2 14 3 16 10 3 6 -3 12
-11 12 -9 0 -19 8 -23 18 -6 15 -70 82 -79 82 -2 0 -4 -7 -4 -15z m0 -65 c0
-13 -7 -20 -20 -20 -19 0 -27 20 -13 33 13 14 33 6 33 -13z m58 -4 c3 -13 -1
-17 -14 -14 -11 2 -20 11 -22 22 -3 13 1 17 14 14 11 -2 20 -11 22 -22z m-60
-64 c4 -24 -7 -29 -26 -10 -18 18 -15 40 6 36 9 -2 18 -13 20 -26z m72 19 c0
-12 -29 -41 -41 -41 -5 0 -9 10 -9 23 0 17 6 23 25 25 14 1 25 -2 25 -7z"/>
<path d="M2221 546 c-24 -25 -47 -45 -50 -44 -3 0 -63 0 -133 -1 -107 -1 -126
-3 -122 -16 5 -11 32 -14 137 -14 l131 -1 24 -30 c13 -16 30 -30 38 -30 11 0
14 -17 14 -80 0 -47 4 -80 10 -80 6 0 10 31 10 73 0 69 2 74 29 95 51 38 49
116 -5 140 -13 7 -24 16 -24 22 0 19 -16 10 -59 -34z m37 -23 c-2 -9 -11 -17
-20 -19 -20 -3 -20 -2 -12 20 8 21 36 21 32 -1z m46 11 c9 -3 16 -13 16 -21 0
-10 -6 -13 -16 -9 -9 3 -18 6 -20 6 -2 0 -4 7 -4 15 0 17 2 18 24 9z m16 -73
c0 -10 -22 -31 -32 -31 -9 0 -11 34 -2 43 7 7 34 -2 34 -12z m-60 -11 c0 -23
-10 -26 -28 -8 -18 18 -15 28 8 28 13 0 20 -7 20 -20z"/>
<path d="M3062 550 l-41 -39 -163 -3 c-137 -3 -163 -5 -163 -18 0 -13 24 -15
160 -15 l160 0 43 -43 c32 -32 43 -51 42 -70 -4 -59 0 -113 9 -108 5 3 7 38 4
77 -5 65 -4 71 16 76 11 3 30 21 42 40 21 34 21 35 4 74 -10 21 -23 39 -28 39
-6 0 -18 7 -27 15 -16 14 -21 12 -58 -25z m36 -22 c-3 -7 -15 -15 -28 -16 -21
-3 -22 -2 -11 12 16 19 44 21 39 4z m56 -4 c4 -11 0 -15 -16 -12 -12 2 -23 9
-26 16 -6 18 35 15 42 -4z m-70 -50 c23 -9 20 -34 -3 -34 -22 0 -35 15 -26 30
7 12 8 12 29 4z m73 -18 c-6 -17 -47 -20 -47 -3 0 9 6 17 13 20 18 6 38 -4 34
-17z"/>
<path d="M3345 512 c-2 -3 -2 -9 1 -13 7 -12 64 -12 64 0 0 9 -57 21 -65 13z"/>
<path d="M2480 485 c0 -13 8 -16 43 -13 23 2 42 8 42 13 0 6 -19 11 -42 13
-34 3 -43 0 -43 -13z"/>
<path d="M4642 1210 c-26 -11 -44 -52 -35 -77 17 -50 60 -67 99 -39 26 19 13
30 -19 15 -21 -9 -30 -9 -42 1 -26 21 -17 30 30 30 56 0 68 20 35 56 -25 26
-33 28 -68 14z m53 -30 c7 -11 -39 -25 -55 -15 -5 3 -8 11 -5 16 8 12 52 12
60 -1z"/>
<path d="M4762 1118 c-7 -7 -12 -19 -12 -27 0 -12 3 -11 18 2 48 44 62 0 16
-48 -19 -21 -33 -42 -31 -49 5 -16 87 -17 87 0 0 8 -9 11 -25 8 -14 -2 -25 0
-25 5 0 12 28 41 40 41 4 0 8 15 8 34 0 27 -5 35 -21 40 -32 8 -42 7 -55 -6z"/>
<path d="M880 950 c0 -5 5 -10 10 -10 6 0 10 5 10 10 0 6 -4 10 -10 10 -5 0
-10 -4 -10 -10z"/>
<path d="M1270 944 c0 -8 5 -12 10 -9 6 3 10 10 10 16 0 5 -4 9 -10 9 -5 0
-10 -7 -10 -16z"/>
<path d="M670 929 c0 -16 -4 -19 -20 -14 -44 14 -82 -44 -47 -73 17 -14 65
-12 71 3 12 34 18 105 7 105 -6 0 -11 -9 -11 -21z m-12 -52 c4 -20 -25 -34
-40 -19 -15 15 -1 44 19 40 10 -2 19 -11 21 -21z"/>
<path d="M830 929 c0 -16 -4 -19 -20 -14 -31 10 -60 -12 -60 -45 0 -17 3 -31
8 -31 4 -1 21 -3 39 -5 31 -2 32 0 42 47 14 62 14 69 1 69 -5 0 -10 -9 -10
-21z m-16 -38 c9 -14 -4 -41 -19 -41 -18 0 -28 17 -21 35 6 17 32 20 40 6z"/>
<path d="M286 903 c-4 -21 -9 -46 -12 -55 -5 -15 1 -18 35 -18 23 0 41 5 41
10 0 6 -12 10 -26 10 -24 0 -25 2 -18 45 8 55 -11 62 -20 8z"/>
<path d="M1195 927 c-16 -18 -10 -80 8 -91 9 -6 20 -6 24 -2 4 5 2 11 -4 13
-19 7 -16 53 2 53 19 0 19 7 1 26 -17 17 -18 17 -31 1z"/>
<path d="M388 909 c-22 -12 -23 -52 -3 -69 22 -19 64 -4 71 25 11 44 -27 68
-68 44z m50 -32 c4 -20 -25 -34 -40 -19 -15 15 -1 44 19 40 10 -2 19 -11 21
-21z"/>
<path d="M492 908 c-13 -13 -16 -67 -4 -69 4 -1 21 -3 38 -5 28 -2 33 1 38 28
3 17 6 36 6 43 0 15 -63 18 -78 3z m52 -17 c10 -16 -5 -41 -25 -41 -19 0 -27
29 -12 43 9 10 31 9 37 -2z"/>
<path d="M866 879 c-6 -38 -2 -59 8 -48 3 3 9 24 14 47 8 32 7 42 -3 42 -7 0
-15 -18 -19 -41z"/>
<path d="M920 905 c0 -7 -3 -27 -6 -44 -4 -20 -3 -31 5 -31 6 0 11 9 11 20 0
11 9 29 20 40 25 25 25 25 -5 26 -14 1 -25 -4 -25 -11z"/>
<path d="M996 907 c-37 -27 -1 -90 40 -72 17 8 16 9 -8 13 -40 5 -34 22 7 22
38 0 44 10 19 34 -19 19 -35 20 -58 3z m49 -17 c4 -6 -5 -10 -20 -10 -15 0
-24 4 -20 10 3 6 12 10 20 10 8 0 17 -4 20 -10z"/>
<path d="M1096 905 c-35 -35 -8 -83 40 -71 30 8 24 20 -9 21 -15 0 -22 6 -22
20 0 15 7 20 28 20 15 -1 26 4 24 10 -6 17 -43 17 -61 0z"/>
<path d="M1255 879 c-6 -37 -2 -59 10 -48 10 11 17 89 7 89 -6 0 -13 -18 -17
-41z"/>
<path d="M1316 907 c-37 -27 2 -96 41 -71 29 18 39 42 27 62 -14 22 -44 26
-68 9z m48 -16 c9 -14 -4 -41 -19 -41 -18 0 -28 17 -21 35 6 17 32 20 40 6z"/>
<path d="M1416 901 c-15 -58 -16 -73 -4 -69 6 2 16 19 20 37 6 23 14 31 26 29
13 -2 16 -11 14 -36 -2 -17 1 -32 6 -32 14 0 24 61 11 76 -15 18 -68 15 -73
-5z"/>
<path d="M4626 800 c-7 -17 1 -160 9 -162 6 -2 11 9 13 24 3 24 6 27 23 18 15
-9 24 -6 44 14 29 29 32 62 10 94 -13 17 -24 21 -56 19 -23 -1 -42 -4 -43 -7z
m92 -64 c-4 -28 -33 -43 -52 -27 -24 20 -20 60 7 70 26 11 50 -12 45 -43z"/>
<path d="M180 734 c-36 -13 -72 -27 -80 -30 -9 -4 8 -14 45 -28 107 -41 105
-41 105 -12 l0 26 610 0 610 0 0 -26 c0 -29 -2 -29 105 12 67 25 73 18 -47 62
l-58 22 0 -25 0 -25 -609 0 -610 0 -3 24 -3 24 -65 -24z"/>
<path d="M4760 695 c-17 -20 -5 -32 15 -15 16 13 45 7 45 -10 0 -5 -16 -27
-35 -49 -46 -50 -45 -61 5 -59 52 2 60 15 18 26 l-33 9 32 19 c26 15 33 26 33
50 0 24 -5 33 -22 38 -35 9 -44 7 -58 -9z"/>
</g>
</svg>
